<svg id="visual" viewBox="0 0 9000 4000" width="9000" height="4000" xmlns="http://www.w3.org/2000/svg" xmlns:xlink="http://www.w3.org/1999/xlink" version="1.1"><rect x="0" y="0" width="9000" height="4000" fill="#3b3b3b"></rect><path d="M0 585L214.3 615C428.7 645 857.3 705 1285.8 654.3C1714.3 603.7 2142.7 442.3 2571.2 429.8C2999.7 417.3 3428.3 553.7 3857 556.7C4285.7 559.7 4714.3 429.3 5143 399C5571.7 368.7 6000.3 438.3 6428.8 454.2C6857.3 470 7285.7 432 7714.2 430.3C8142.7 428.7 8571.3 463.3 8785.7 480.7L9000 498L9000 4001L8785.7 4001C8571.3 4001 8142.7 4001 7714.2 4001C7285.7 4001 6857.3 4001 6428.8 4001C6000.3 4001 5571.7 4001 5143 4001C4714.3 4001 4285.7 4001 3857 4001C3428.3 4001 2999.7 4001 2571.2 4001C2142.7 4001 1714.3 4001 1285.8 4001C857.3 4001 428.7 4001 214.3 4001L0 4001Z" fill="#434343"></path><path d="M0 684L214.3 682.5C428.7 681 857.3 678 1285.8 748.3C1714.3 818.7 2142.7 962.3 2571.2 986.5C2999.7 1010.7 3428.3 915.3 3857 857.7C4285.7 800 4714.3 780 5143 830.5C5571.7 881 6000.3 1002 6428.8 1018.3C6857.3 1034.7 7285.7 946.3 7714.2 896.7C8142.7 847 8571.3 836 8785.7 830.5L9000 825L9000 4001L8785.7 4001C8571.3 4001 8142.7 4001 7714.2 4001C7285.7 4001 6857.3 4001 6428.8 4001C6000.3 4001 5571.7 4001 5143 4001C4714.3 4001 4285.7 4001 3857 4001C3428.3 4001 2999.7 4001 2571.2 4001C2142.7 4001 1714.3 4001 1285.8 4001C857.3 4001 428.7 4001 214.3 4001L0 4001Z" fill="#3f3f3f"></path><path d="M0 1022L214.3 1072.5C428.7 1123 857.3 1224 1285.8 1297.2C1714.3 1370.3 2142.7 1415.7 2571.2 1401.2C2999.7 1386.7 3428.3 1312.3 3857 1292.8C4285.7 1273.3 4714.3 1308.7 5143 1282.8C5571.7 1257 6000.3 1170 6428.8 1112.2C6857.3 1054.3 7285.7 1025.7 7714.2 1065.3C8142.7 1105 8571.3 1213 8785.7 1267L9000 1321L9000 4001L8785.7 4001C8571.3 4001 8142.7 4001 7714.2 4001C7285.7 4001 6857.3 4001 6428.8 4001C6000.3 4001 5571.7 4001 5143 4001C4714.3 4001 4285.7 4001 3857 4001C3428.3 4001 2999.7 4001 2571.2 4001C2142.7 4001 1714.3 4001 1285.8 4001C857.3 4001 428.7 4001 214.3 4001L0 4001Z" fill="#3b3b3b"></path><path d="M0 1589L214.3 1568.5C428.7 1548 857.3 1507 1285.8 1490C1714.3 1473 2142.7 1480 2571.2 1463.5C2999.7 1447 3428.3 1407 3857 1395C4285.7 1383 4714.3 1399 5143 1442.2C5571.7 1485.3 6000.3 1555.7 6428.8 1602.3C6857.3 1649 7285.7 1672 7714.2 1693C8142.7 1714 8571.3 1733 8785.7 1742.5L9000 1752L9000 4001L8785.7 4001C8571.3 4001 8142.7 4001 7714.2 4001C7285.7 4001 6857.3 4001 6428.8 4001C6000.3 4001 5571.7 4001 5143 4001C4714.3 4001 4285.7 4001 3857 4001C3428.3 4001 2999.7 4001 2571.2 4001C2142.7 4001 1714.3 4001 1285.8 4001C857.3 4001 428.7 4001 214.3 4001L0 4001Z" fill="#383838"></path><path d="M0 1966L214.3 1921C428.7 1876 857.3 1786 1285.8 1751.5C1714.3 1717 2142.7 1738 2571.2 1739.5C2999.7 1741 3428.3 1723 3857 1716.2C4285.7 1709.3 4714.3 1713.7 5143 1720C5571.7 1726.3 6000.3 1734.7 6428.8 1737.8C6857.3 1741 7285.7 1739 7714.2 1803.7C8142.7 1868.3 8571.3 1999.7 8785.7 2065.3L9000 2131L9000 4001L8785.7 4001C8571.3 4001 8142.7 4001 7714.2 4001C7285.7 4001 6857.3 4001 6428.8 4001C6000.3 4001 5571.7 4001 5143 4001C4714.3 4001 4285.7 4001 3857 4001C3428.3 4001 2999.7 4001 2571.2 4001C2142.7 4001 1714.3 4001 1285.8 4001C857.3 4001 428.7 4001 214.3 4001L0 4001Z" fill="#343434"></path><path d="M0 2360L214.3 2326.2C428.7 2292.3 857.3 2224.7 1285.8 2207.5C1714.3 2190.3 2142.7 2223.7 2571.2 2268.3C2999.7 2313 3428.3 2369 3857 2392C4285.7 2415 4714.3 2405 5143 2351.8C5571.7 2298.7 6000.3 2202.3 6428.8 2153.7C6857.3 2105 7285.7 2104 7714.2 2138.7C8142.7 2173.3 8571.3 2243.7 8785.7 2278.8L9000 2314L9000 4001L8785.7 4001C8571.3 4001 8142.7 4001 7714.2 4001C7285.7 4001 6857.3 4001 6428.8 4001C6000.3 4001 5571.7 4001 5143 4001C4714.3 4001 4285.7 4001 3857 4001C3428.3 4001 2999.7 4001 2571.2 4001C2142.7 4001 1714.3 4001 1285.8 4001C857.3 4001 428.7 4001 214.3 4001L0 4001Z" fill="#303030"></path><path d="M0 2392L214.3 2410.8C428.7 2429.7 857.3 2467.3 1285.8 2495.3C1714.3 2523.3 2142.7 2541.7 2571.2 2545.2C2999.7 2548.7 3428.3 2537.3 3857 2542C4285.7 2546.7 4714.3 2567.3 5143 2583.7C5571.7 2600 6000.3 2612 6428.8 2596C6857.3 2580 7285.7 2536 7714.2 2552.2C8142.7 2568.3 8571.3 2644.7 8785.7 2682.8L9000 2721L9000 4001L8785.7 4001C8571.3 4001 8142.7 4001 7714.2 4001C7285.7 4001 6857.3 4001 6428.8 4001C6000.3 4001 5571.7 4001 5143 4001C4714.3 4001 4285.7 4001 3857 4001C3428.3 4001 2999.7 4001 2571.2 4001C2142.7 4001 1714.3 4001 1285.8 4001C857.3 4001 428.7 4001 214.3 4001L0 4001Z" fill="#2c2c2c"></path><path d="M0 2905L214.3 2925C428.7 2945 857.3 2985 1285.8 2976.2C1714.3 2967.3 2142.7 2909.7 2571.2 2893C2999.7 2876.3 3428.3 2900.7 3857 2919.5C4285.7 2938.3 4714.3 2951.7 5143 2957.3C5571.7 2963 6000.3 2961 6428.8 2955.5C6857.3 2950 7285.7 2941 7714.2 2913C8142.7 2885 8571.3 2838 8785.7 2814.5L9000 2791L9000 4001L8785.7 4001C8571.3 4001 8142.7 4001 7714.2 4001C7285.7 4001 6857.3 4001 6428.8 4001C6000.3 4001 5571.7 4001 5143 4001C4714.3 4001 4285.7 4001 3857 4001C3428.3 4001 2999.7 4001 2571.2 4001C2142.7 4001 1714.3 4001 1285.8 4001C857.3 4001 428.7 4001 214.3 4001L0 4001Z" fill="#282828"></path><path d="M0 3204L214.3 3235.2C428.7 3266.3 857.3 3328.7 1285.8 3342.7C1714.3 3356.7 2142.7 3322.3 2571.2 3277C2999.7 3231.7 3428.3 3175.3 3857 3157C4285.7 3138.7 4714.3 3158.3 5143 3180C5571.7 3201.7 6000.3 3225.3 6428.8 3244.5C6857.3 3263.7 7285.7 3278.3 7714.2 3301.8C8142.7 3325.3 8571.3 3357.7 8785.7 3373.8L9000 3390L9000 4001L8785.7 4001C8571.3 4001 8142.7 4001 7714.2 4001C7285.7 4001 6857.3 4001 6428.8 4001C6000.3 4001 5571.7 4001 5143 4001C4714.3 4001 4285.7 4001 3857 4001C3428.3 4001 2999.7 4001 2571.2 4001C2142.7 4001 1714.3 4001 1285.8 4001C857.3 4001 428.7 4001 214.3 4001L0 4001Z" fill="#252525"></path><path d="M0 3807L214.3 3786.7C428.7 3766.3 857.3 3725.7 1285.8 3712.7C1714.3 3699.7 2142.7 3714.3 2571.2 3712C2999.7 3709.7 3428.3 3690.3 3857 3672.8C4285.7 3655.3 4714.3 3639.7 5143 3618.8C5571.7 3598 6000.3 3572 6428.8 3584.8C6857.3 3597.7 7285.7 3649.3 7714.2 3675.8C8142.7 3702.3 8571.3 3703.7 8785.7 3704.3L9000 3705L9000 4001L8785.7 4001C8571.3 4001 8142.7 4001 7714.2 4001C7285.7 4001 6857.3 4001 6428.8 4001C6000.3 4001 5571.7 4001 5143 4001C4714.3 4001 4285.7 4001 3857 4001C3428.3 4001 2999.7 4001 2571.2 4001C2142.7 4001 1714.3 4001 1285.8 4001C857.3 4001 428.7 4001 214.3 4001L0 4001Z" fill="#212121"></path></svg>